<svg xmlns="http://www.w3.org/2000/svg" xmlns:xlink="http://www.w3.org/1999/xlink" version="1.1" width="1000" height="1000" viewBox="0 0 1000 1000" xml:space="preserve">
<desc>Created with Fabric.js 3.5.0</desc>
<defs>
</defs>
<rect x="0" y="0" width="100%" height="100%" fill="#ffffff"/>
<g transform="matrix(5.3792 0 0 5.3792 163.7969 499.9992)" id="584358">
<path style="stroke: none; stroke-width: 1; stroke-dasharray: none; stroke-linecap: butt; stroke-dashoffset: 0; stroke-linejoin: miter; stroke-miterlimit: 4; is-custom-font: none; font-file-url: none; fill: rgb(226,215,3); fill-rule: evenodd; opacity: 1;" transform=" translate(-22, -22)" d="M 44 22 C 44 34.1503 34.1503 44 22 44 C 9.84974 44 0 34.1503 0 22 C 0 9.84974 9.84974 0 22 0 C 34.1503 0 44 9.84974 44 22 Z M 16 18 C 16 20.7614 13.7614 23 11 23 C 8.23858 23 6 20.7614 6 18 C 6 15.2386 8.23858 13 11 13 C 13.7614 13 16 15.2386 16 18 Z M 15 36 C 17.7614 36 20 33.7614 20 31 C 20 28.2386 17.7614 26 15 26 C 12.2386 26 10 28.2386 10 31 C 10 33.7614 12.2386 36 15 36 Z M 34 31 C 34 33.7614 31.7614 36 29 36 C 26.2386 36 24 33.7614 24 31 C 24 28.2386 26.2386 26 29 26 C 31.7614 26 34 28.2386 34 31 Z M 33 23 C 35.7614 23 38 20.7614 38 18 C 38 15.2386 35.7614 13 33 13 C 30.2386 13 28 15.2386 28 18 C 28 20.7614 30.2386 23 33 23 Z M 27 10 C 27 12.7614 24.7614 15 22 15 C 19.2386 15 17 12.7614 17 10 C 17 7.23858 19.2386 5 22 5 C 24.7614 5 27 7.23858 27 10 Z M 22 24 C 23.1046 24 24 23.1046 24 22 C 24 20.8954 23.1046 20 22 20 C 20.8954 20 20 20.8954 20 22 C 20 23.1046 20.8954 24 22 24 Z" stroke-linecap="round"/>
</g>
<g transform="matrix(5.3792 0 0 5.3792 268.6913 588.4027)" id="352879">
<path style="stroke: rgb(226,215,3); stroke-width: 3; stroke-dasharray: none; stroke-linecap: round; stroke-dashoffset: 0; stroke-linejoin: round; stroke-miterlimit: 4; is-custom-font: none; font-file-url: none; fill: none; fill-rule: nonzero; opacity: 1;" transform=" translate(-41.5, -38.4343)" d="M 33.5 38.5 C 35.5 37.1667 43 35 49.5 40" stroke-linecap="round"/>
</g>
</svg>